/* XPM */
static char *result[] = {
/* columns rows colors chars-per-pixel */
"16 16 82 1 ",
"  c #565870",
". c #846D6C",
"X c #75758A",
"o c #787B93",
"O c #75749E",
"+ c #7F7DA9",
"@ c #817FAB",
"# c #7D8582",
"$ c #878982",
"% c #9B8687",
"& c #858D98",
"* c #8E969C",
"= c #949594",
"- c #959694",
"; c #A7908E",
": c #A79D95",
"> c #A59F98",
", c #BF9798",
"< c #8481AE",
"1 c #8C8DAD",
"2 c #9397A8",
"3 c #969AAF",
"4 c #8787B7",
"5 c #8889B2",
"6 c #9C9FB6",
"7 c #99A1A6",
"8 c #9DA0BB",
"9 c #ADA9A1",
"0 c #B4A4A0",
"q c #BDA8A6",
"w c #C2A4A4",
"e c #CAA0A4",
"r c #CCA2A6",
"t c #CEA4A8",
"y c #C5AEAC",
"u c #D3ACAB",
"i c #DDAFB0",
"p c #CEB3B2",
"a c #B6C7BA",
"s c #B7C8BA",
"d c #B8C8B8",
"f c #BCCAB9",
"g c #BDCAB9",
"h c #BACCBE",
"j c #C2CFBE",
"k c #AAABCE",
"l c #AFB1CF",
"z c #A0A0D8",
"x c #A0A1D8",
"c c #AFB0D2",
"v c #BABBDC",
"b c #BBBDE1",
"n c #BED0C1",
"m c #C2D2C0",
"M c #C4D6C5",
"N c #C6D7C5",
"B c #C5D8C5",
"V c #C6D8C5",
"C c #C5D8C6",
"Z c #C7D9C6",
"A c #C8DCC9",
"S c #C9DCC9",
"D c #CBDFCB",
"F c #E5C3C3",
"G c #E1C4C3",
"H c #E8C7C6",
"J c #FFCECF",
"K c #F0D0CF",
"L c #F8D5D5",
"P c #DEF4DE",
"I c #DEF5DE",
"U c #DFF6DF",
"Y c #E0F6DF",
"T c #E0F7E1",
"R c #E1F7E1",
"E c #E1F8E0",
"W c #E5FBE5",
"Q c #E5FCE5",
"! c #E8FFE8",
"~ c #E9FFE9",
"^ c #EAFFEA",
"/ c None",
/* pixels */
"/////!!!!!!/////",
"///!!!!!!!!!!///",
"//!!!!!!!!!!!!//",
"/!!!!!~^^~!!!!!/",
"/!!^^^TddR^^^!!/",
"!!~VDj$=-#hDB~!!",
"!~P>;.,%XO o*I~!",
"!^ZqFwir@41k3C^!",
"!^NyGHJt<xcl6M^!",
"!^S0KLJe+zbv2A^!",
"!!Wm9pu:&587nQ!!",
"/!!^UfgTEasY^!!/",
"/!!!~^^!!^^~!!!/",
"//!!!!!!!!!!!!//",
"///!!!!!!!!!!///",
"/////!!!!!!/////"
};
