/* XPM */
static char *result[] = {
/* columns rows colors chars-per-pixel */
"32 32 95 2 ",
"   c black",
".  c #020202",
"X  c gray1",
"o  c #040404",
"O  c #0B0B0B",
"+  c #0C0C0C",
"@  c gray5",
"#  c gray8",
"$  c #151515",
"%  c #161616",
"&  c gray9",
"*  c #181818",
"=  c #191919",
"-  c gray10",
";  c #1B1B1B",
":  c gray11",
">  c #1D1D1D",
",  c #1E1E1E",
"<  c gray12",
"1  c gray13",
"2  c #232323",
"3  c gray14",
"4  c #252525",
"5  c #272727",
"6  c gray16",
"7  c #2A2A2A",
"8  c gray17",
"9  c #2C2C2C",
"0  c #2D2D2D",
"q  c gray18",
"w  c #2F2F2F",
"e  c gray19",
"r  c gray20",
"t  c #353535",
"y  c #3A3A3A",
"u  c gray23",
"i  c gray24",
"p  c #3E3E3E",
"a  c gray25",
"s  c gray28",
"d  c #484848",
"f  c #494949",
"g  c gray29",
"h  c gray31",
"j  c #535353",
"k  c #555555",
"l  c #565656",
"z  c gray35",
"x  c #5A5A5A",
"c  c #5B5B5B",
"v  c gray36",
"b  c #5D5D5D",
"n  c gray37",
"m  c #5F5F5F",
"M  c #606060",
"N  c #626262",
"B  c gray39",
"V  c #646464",
"C  c gray40",
"Z  c #676767",
"A  c #686868",
"S  c DimGray",
"D  c #6A6A6A",
"F  c gray42",
"G  c #6C6C6C",
"H  c #6D6D6D",
"J  c gray43",
"K  c #717171",
"L  c #747474",
"P  c gray46",
"I  c #777777",
"U  c gray47",
"Y  c gray51",
"T  c #898989",
"R  c #8B8B8B",
"E  c gray64",
"W  c #A9A9A9",
"Q  c #C0C0C0",
"!  c gray83",
"~  c #D5D5D5",
"^  c gray84",
"/  c #D7D7D7",
"(  c #D8D8D8",
")  c gray86",
"_  c #DDDDDD",
"`  c gray87",
"'  c #E6E6E6",
"]  c gray91",
"[  c #E9E9E9",
"{  c #EAEAEA",
"}  c gray92",
"|  c #EFEFEF",
" . c gray94",
".. c white",
"X. c None",
/* pixels */
"X.X.X.X.X.X.X.X.X.X.X.X.                X.X.X.X.X.X.X.X.X.X.X.X.",
"X.X.X.X.X.X.X.X.X.                            X.X.X.X.X.X.X.X.X.",
"X.X.X.X.X.X.X.                                    X.X.X.X.X.X.X.",
"X.X.X.X.X.X.                                        X.X.X.X.X.X.",
"X.X.X.X.X.                                            X.X.X.X.X.",
"X.X.X.X.        w D G F G G H G G H H H G G D 9         X.X.X.X.",
"X.X.X.          5 W ) / / / / / / / / / ( ) E 2           X.X.X.",
"X.X.              @ x 5 $ % % % % % % $ 9 z O               X.X.",
"X.X.                b :                 4 v                 X.X.",
"X.                  h r                 u g                   X.",
"X.                  7 c                 B 4                   X.",
"X.                  o m 3             9 B X                   X.",
"                      ; Z %         , K -                       ",
"                        5 Z w d s r J 4                         ",
"                          < P Q Q U :                           ",
"                            ; P R >                             ",
"                            = U n #                             ",
"                          , P h a C *                           ",
"                        5 L 4 2 , 2 S 1                         ",
"                      > I <   w 6   : A &                       ",
"X.                  o F q     T Y     7 n .                   X.",
"X.                  8 V     z  .| l     m 2                   X.",
"X.                  j y   v } ....{ x   y f                   X.",
"X.X.                N 1 k / [ ' ' ] ^ k 3 b                 X.X.",
"X.X.              + V 0 r p i i i i p t e M +               X.X.",
"X.X.X.          2 E ` ( ~ ~ ~ ~ ~ ~ ! ~ ( _ W 5           X.X.X.",
"X.X.X.X.        9 D F G H H H G G H G G F F F w         X.X.X.X.",
"X.X.X.X.X.                                            X.X.X.X.X.",
"X.X.X.X.X.X.                                        X.X.X.X.X.X.",
"X.X.X.X.X.X.X.                                    X.X.X.X.X.X.X.",
"X.X.X.X.X.X.X.X.X.                            X.X.X.X.X.X.X.X.X.",
"X.X.X.X.X.X.X.X.X.X.X.X.                X.X.X.X.X.X.X.X.X.X.X.X."
};
