/* XPM */
static char *_478d6457ece4887df19c0aa6e9f3cc6VTzC2bnJZkKhZYcW[] = {
/* columns rows colors chars-per-pixel */
"64 64 164 2 ",
"   c None",
".  c #010201",
"X  c #0A0909",
"o  c #060608",
"O  c #141414",
"+  c #15161C",
"@  c #1C1C1B",
"#  c #231C1C",
"$  c #1E211E",
"%  c #20221F",
"&  c #1C1C23",
"*  c #1F1F2B",
"=  c #281F20",
"-  c #1F2024",
";  c #232221",
":  c #2B2424",
">  c #272A26",
",  c #22222F",
"<  c #2B2D2C",
"1  c #342C2B",
"2  c #3B2D2E",
"3  c #2E322E",
"4  c #252534",
"5  c #282930",
"6  c #2A2A3A",
"7  c #2F3038",
"8  c #313431",
"9  c #3E3636",
"0  c #343934",
"q  c #33333D",
"w  c #3B3B3B",
"e  c #443535",
"r  c #463C3C",
"t  c #3E453E",
"y  c #2F3043",
"u  c #343542",
"i  c #35364B",
"p  c #3A3A4C",
"a  c #3A3A45",
"s  c #3F3F58",
"d  c #3C3C53",
"f  c #4D4343",
"g  c #40404E",
"h  c #544242",
"j  c #5D4949",
"k  c #574949",
"l  c #4C544C",
"z  c #474756",
"x  c #565F56",
"c  c #614C4C",
"v  c #654F50",
"b  c #675555",
"n  c #755C5C",
"m  c #576056",
"M  c #5A645B",
"N  c #6E605F",
"B  c #494964",
"V  c #5A5A6A",
"C  c #545373",
"Z  c #59597B",
"A  c #646E63",
"S  c #6A6A6A",
"D  c #796060",
"F  c #7B6B6B",
"G  c #6A7469",
"H  c #6F7A6E",
"J  c #6B6C7F",
"K  c #616272",
"L  c #727D72",
"P  c #7B7B7B",
"I  c #8A6D6D",
"U  c #806465",
"Y  c #8A7877",
"T  c #937475",
"R  c #997B7C",
"E  c #768276",
"W  c #798579",
"Q  c #79867A",
"!  c #5F5F83",
"~  c #646485",
"^  c #76778C",
"/  c #6F6F99",
"(  c #6D6C96",
")  c #7979A7",
"_  c #7D7DAB",
"`  c #818181",
"'  c #828F81",
"]  c #898989",
"[  c #998484",
"{  c #869486",
"}  c #83849B",
"|  c #A38182",
" . c #A6908F",
".. c #B68F90",
"X. c #AA9494",
"o. c #A79191",
"O. c #B49D9C",
"+. c #BA9293",
"@. c #92A091",
"#. c #9EAE9E",
"$. c #8C8DA6",
"%. c #8282B2",
"&. c #8888BB",
"*. c #9D9FBA",
"=. c #9495B4",
"-. c #9EA0BB",
";. c #ADBEAD",
":. c #B5B5B5",
">. c #BCBCBC",
",. c #CA9FA0",
"<. c #CCA7A7",
"1. c #D8ABAB",
"2. c #D2A5A6",
"3. c #CBB0AF",
"4. c #CCB1B1",
"5. c #DABEBD",
"6. c #D4B9B8",
"7. c #E3B3B4",
"8. c #EBB9BA",
"9. c #F1BEBF",
"0. c #B0C2B0",
"q. c #B6C9B6",
"w. c #B9CBB9",
"e. c #BFD1BE",
"r. c #8E8EC2",
"t. c #9494CB",
"y. c #9191C6",
"u. c #9A9AD3",
"i. c #A5A7C3",
"p. c #A8AAC7",
"a. c #ACAECB",
"s. c #AFB0CF",
"d. c #AEAFD7",
"f. c #A6A7D9",
"g. c #A5A6D7",
"h. c #B3B5D4",
"j. c #B3B5DD",
"k. c #BBBDDD",
"l. c #B6B8DE",
"z. c #BBBDE0",
"x. c #BFC1E2",
"c. c #DFC2C1",
"v. c #C2D6C2",
"b. c #CADECA",
"n. c #E2C5C4",
"m. c #E6C8C7",
"M. c #E7C9C8",
"N. c #ECCDCC",
"B. c #F4C1C2",
"V. c #F9C6C7",
"C. c #FFCACB",
"Z. c #F3CDCC",
"A. c #F6D5D4",
"S. c #F8D3D2",
"D. c #F8D8D7",
"F. c #F9D9D8",
"G. c #CCE1CC",
"H. c #D0E4D0",
"J. c #D4E9D4",
"K. c #D9EED9",
"L. c #DCF1DB",
"P. c #C1C3E4",
"I. c #E5FBE5",
"U. c #E8FFE8",
/* pixels */
"                                                    U.U.U.U.U.U.U.U.U.U.U.U.                                                    ",
"                                            U.U.U.U.U.U.U.U.U.U.U.U.U.U.U.U.U.U.U.U.                                            ",
"                                        U.U.U.U.U.U.U.U.U.U.U.U.U.U.U.U.U.U.U.U.U.U.U.U.                                        ",
"                                  U.U.U.U.U.U.U.U.U.U.U.U.U.U.U.U.U.U.U.U.U.U.U.U.U.U.U.U.U.U.                                  ",
"                                U.U.U.U.U.U.U.U.U.U.U.U.U.U.U.U.U.U.U.U.U.U.U.U.U.U.U.U.U.U.U.U.                                ",
"                            U.U.U.U.U.U.U.U.U.U.U.U.U.U.U.U.U.U.U.U.U.U.U.U.U.U.U.U.U.U.U.U.U.U.U.U.                            ",
"                          U.U.U.U.U.U.U.U.U.U.U.U.U.U.U.U.U.U.U.U.U.U.U.U.U.U.U.U.U.U.U.U.U.U.U.U.U.U.                          ",
"                      U.U.U.U.U.U.U.U.U.U.U.U.U.U.U.U.U.U.U.U.U.U.U.U.U.U.U.U.U.U.U.U.U.U.U.U.U.U.U.U.U.U.                      ",
"                    U.U.U.U.U.U.U.U.U.U.U.U.U.U.U.U.U.U.U.U.U.U.U.U.U.U.U.U.U.U.U.U.U.U.U.U.U.U.U.U.U.U.U.U.                    ",
"                  U.U.U.U.U.U.U.U.U.U.U.U.U.U.U.U.U.U.U.U.U.U.U.U.U.U.U.U.U.U.U.U.U.U.U.U.U.U.U.U.U.U.U.U.U.U.                  ",
"                U.U.U.U.U.U.U.U.U.U.U.U.U.U.U.U.U.U.U.U.U.U.U.U.U.U.U.U.U.U.U.U.U.U.U.U.U.U.U.U.U.U.U.U.U.U.U.U.                ",
"              U.U.U.U.U.U.U.U.U.U.U.U.U.U.U.U.U.U.U.U.U.U.U.U.U.U.U.U.U.U.U.U.U.U.U.U.U.U.U.U.U.U.U.U.U.U.U.U.U.U.              ",
"              U.U.U.U.U.U.U.U.U.U.U.U.U.U.U.U.U.U.U.U.U.U.U.U.U.U.U.U.U.U.U.U.U.U.U.U.U.U.U.U.U.U.U.U.U.U.U.U.U.U.              ",
"            U.U.U.U.U.U.U.U.U.U.U.U.U.U.U.U.U.U.U.U.U.U.U.U.U.U.U.U.U.U.U.U.U.U.U.U.U.U.U.U.U.U.U.U.U.U.U.U.U.U.U.U.            ",
"          U.U.U.U.U.U.U.U.U.U.U.U.U.U.U.U.U.U.U.U.U.U.U.U.U.U.U.U.U.U.U.U.U.U.U.U.U.U.U.U.U.U.U.U.U.U.U.U.U.U.U.U.U.U.          ",
"          U.U.U.U.U.U.U.U.U.U.U.U.U.U.U.U.U.U.U.U.U.U.U.U.U.U.U.U.U.U.U.U.U.U.U.U.U.U.U.U.U.U.U.U.U.U.U.U.U.U.U.U.U.U.          ",
"        U.U.U.U.U.U.U.U.U.U.U.U.U.U.U.U.U.U.U.U.U.U.U.U.U.U.U.U.U.U.U.U.U.U.U.U.U.U.U.U.U.U.U.U.U.U.U.U.U.U.U.U.U.U.U.U.        ",
"      U.U.U.U.U.U.U.U.U.U.U.U.U.U.U.U.U.U.U.U.U.U.U.U.U.U.U.U.I.I.U.U.U.U.U.U.U.U.U.U.U.U.U.U.U.U.U.U.U.U.U.U.U.U.U.U.U.U.      ",
"      U.U.U.U.U.U.U.U.U.U.U.U.U.U.U.U.U.U.U.U.U.U.U.U.U.U.U.;.l l ;.U.U.U.U.U.U.U.U.U.U.U.U.U.U.U.U.U.U.U.U.U.U.U.U.U.U.U.      ",
"      U.U.U.U.U.U.U.U.U.U.U.U.U.U.U.U.U.U.U.U.U.U.U.U.U.w.m @ w w @ m w.U.U.U.U.U.U.U.U.U.U.U.U.U.U.U.U.U.U.U.U.U.U.U.U.U.      ",
"    U.U.U.U.U.U.U.U.U.U.U.U.U.U.U.U.U.U.U.U.U.U.U.U.v.A @ w ] :.:.] w @ A v.U.U.U.U.U.U.U.U.U.U.U.U.U.U.U.U.U.U.U.U.U.U.U.U.    ",
"    U.U.U.U.U.U.U.U.U.U.U.U.U.U.U.U.U.U.U.U.U.U.b.L ; 8 ` :.>.>.>.>.:.` 8 ; L b.U.U.U.U.U.U.U.U.U.U.U.U.U.U.U.U.U.U.U.U.U.U.    ",
"  U.U.U.U.U.U.U.U.U.U.U.U.I.' ;.U.U.U.U.U.U.H.Q $ X S :.>.>.>.>.>.>.>.>.:.S X $ Q H.U.U.U.U.U.U.;.' I.U.U.U.U.U.U.U.U.U.U.U.U.  ",
"  U.U.U.U.U.U.U.U.U.U.U.U.G.$ O G G.U.U.J.{ < 1 v ; < P :.>.>.>.>.>.>.:.P < & d * < { J.U.U.G.G O $ G.U.U.U.U.U.U.U.U.U.U.U.U.  ",
"  U.U.U.U.U.U.U.U.U.U.U.U.#.; R 2 3 @.@.0 : I 7.C.1.n # 8 ` :.>.>.:.` 8 + B %.u.&.C & 0 @.@.3 , ~ - #.U.U.U.U.U.U.U.U.U.U.U.U.  ",
"  U.U.U.U.U.U.U.U.U.U.U.U.A f S.8.U @ . h 1.9.C.C.C.C.2.b @ w ] ] w + s _ u.u.u.u.y.%.u . + B r.l.p A U.U.U.U.U.U.U.U.U.U.U.U.  ",
"U.U.U.U.U.U.U.U.U.U.U.U.K.3 Y F.C.C.,.h = j e +.C.C.C.C.C.,.c O O p ) u.u.u.u.u./ 4 p & u ) u.g.P.J 3 K.U.U.U.U.U.U.U.U.U.U.U.U.",
"U.U.U.U.U.U.U.U.U.U.U.K.A ; 4.D.S.C.C.B.T X ; # I B.C.C.C.C.V.h y t.u.u.u.u.y.C + & o Z t.u.u.j.P.-.& A K.U.U.U.U.U.U.U.U.U.U.U.",
"U.U.U.U.U.U.U.U.U.U.U.{ @ O.A.A.A.S.C.C.R ; 3.| # h 1.C.C.C.C.j i u.u.u.u.%.u + ~ =.& ! u.g.l.x.x.x.$.+ { U.U.U.U.U.U.U.U.U.U.U.",
"U.U.U.U.U.U.U.U.U.U.U.E r A.A.A.A.A.A.Z.j F D.C.2.e D C.C.C.C.j i u.u.u.u.B 6 _ g.x.K g d.x.x.x.P.x.k.q E U.U.U.U.U.U.U.U.U.U.U.",
"U.U.U.U.U.U.U.U.U.U.U.E r A.A.A.A.A.A.A.c.M.A.S.C.8.8.C.C.C.C.j i u.u.u.u.r.r.u.j.P.h.a.x.x.P.k.x.x.k.q E U.U.U.U.U.U.U.U.U.U.U.",
"U.U.U.U.U.U.U.U.U.U.U.W r A.F. .b m.A.A.D.A.A.A.C.C.C.C.C.C.C.j i u.u.u.u.u.u.u.z.x.P.P.x.P.h.z } P.k.u Q U.U.U.U.U.U.U.U.U.U.U.",
"U.U.U.U.U.U.U.U.U.U.U.Q r A.F.X.9 6.D.N.n.A.A.A.C.C.C.C.C.C.C.j i u.u.u.u.u.u.u.z.x.x.s.k.P.i.7 } P.k.u Q U.U.U.U.U.U.U.U.U.U.U.",
"U.U.U.U.U.U.U.U.U.U.U.Q r A.A.A.m.A.F.o.1 6.D.A.C.C.C.C.C.C.C.j i u.u.u.u.u.u.u.z.P.i.5 } P.z.h.x.x.k.u Q U.U.U.U.U.U.U.U.U.U.U.",
"U.U.U.U.U.U.U.U.U.U.U.Q r A.A.A.A.A.D.3.N 5.D.A.C.C.C.C.C.C.C.j i u.u.u.u.u.u.u.z.P.a.V *.P.x.P.x.x.k.u Q U.U.U.U.U.U.U.U.U.U.U.",
"U.U.U.U.U.U.U.U.U.U.U.Q r A.A.A.A.A.A.A.A.A.A.A.C.C.C.C.C.C.C.j i u.u.u.u.u.u.u.z.x.x.x.P.x.x.x.x.x.k.u Q U.U.U.U.U.U.U.U.U.U.U.",
"U.U.U.U.U.U.U.U.U.U.U.Q r A.A.A.A.A.A.A.A.A.A.A.C.C.C.C.C.C.C.j i u.u.u.u.u.u.u.z.x.x.x.x.x.x.x.x.x.k.u Q U.U.U.U.U.U.U.U.U.U.U.",
"U.U.U.U.U.U.U.U.U.U.U.Q r A.A.A.A.A.A.A.A.A.A.A.C.C.C.C.C.C.C.j i u.u.u.u.u.u.u.z.x.x.x.x.x.x.x.P.P.z.u Q U.U.U.U.U.U.U.U.U.U.U.",
"  U.U.U.U.U.U.U.U.U.U.E : 3.A.D.A.A.A.A.A.A.A.A.C.C.C.C.C.C.C.j i u.u.u.u.u.u.u.z.x.x.x.x.x.x.x.P.P.*.& E U.U.U.U.U.U.U.U.U.U.  ",
"  U.U.U.U.U.U.U.U.U.U.q.t # F 5.D.A.A.A.A.A.A.A.C.C.C.C.C.C.C.j i u.u.u.u.u.u.u.z.x.x.x.x.x.P.P.p.V & t q.U.U.U.U.U.U.U.U.U.U.  ",
"  U.U.U.U.U.U.U.U.U.U.U.L.@.8 : Y n.F.A.A.A.A.A.C.C.C.C.C.C.7.2 4 &.u.u.u.u.u.u.z.x.x.x.P.P.s.J ; 8 @.L.U.U.U.U.U.U.U.U.U.U.U.  ",
"  U.U.U.U.U.U.U.U.U.U.U.U.U.J.' < 1 [ M.F.A.A.A.C.C.C.C.8.T : 8 8 & C r.u.u.u.u.z.x.P.P.h.^ < < ' J.U.U.U.U.U.U.U.U.U.U.U.U.U.  ",
"    U.U.U.U.U.U.U.U.U.U.U.U.U.U.G.L ; 9 o.N.F.A.C.C.B.| 2 > ' J.J.' > , ~ y.u.u.z.P.k.} q ; L G.U.U.U.U.U.U.U.U.U.U.U.U.U.U.    ",
"    U.U.U.U.U.U.U.U.U.U.U.U.U.U.U.U.v.A $ f O.A.V...r % H b.U.U.U.U.b.H $ 6 ( u.l.$.a @ A v.U.U.U.U.U.U.U.U.U.U.U.U.U.U.U.U.    ",
"      U.U.U.U.U.U.U.U.U.U.U.U.U.U.U.U.U.w.x @ k h @ M e.U.U.U.U.U.U.U.U.e.M @ i g @ m w.U.U.U.U.U.U.U.U.U.U.U.U.U.U.U.U.U.      ",
"      U.U.U.U.U.U.U.U.U.U.U.U.U.U.U.U.U.U.I.;.l l 0.U.U.U.U.U.U.U.U.U.U.U.U.0.l l ;.I.U.U.U.U.U.U.U.U.U.U.U.U.U.U.U.U.U.U.      ",
"      U.U.U.U.U.U.U.U.U.U.U.U.U.U.U.U.U.U.U.U.I.I.U.U.U.U.U.U.U.U.U.U.U.U.U.U.I.I.U.U.U.U.U.U.U.U.U.U.U.U.U.U.U.U.U.U.U.U.      ",
"        U.U.U.U.U.U.U.U.U.U.U.U.U.U.U.U.U.U.U.U.U.U.U.U.U.U.U.U.U.U.U.U.U.U.U.U.U.U.U.U.U.U.U.U.U.U.U.U.U.U.U.U.U.U.U.U.        ",
"          U.U.U.U.U.U.U.U.U.U.U.U.U.U.U.U.U.U.U.U.U.U.U.U.U.U.U.U.U.U.U.U.U.U.U.U.U.U.U.U.U.U.U.U.U.U.U.U.U.U.U.U.U.U.          ",
"          U.U.U.U.U.U.U.U.U.U.U.U.U.U.U.U.U.U.U.U.U.U.U.U.U.U.U.U.U.U.U.U.U.U.U.U.U.U.U.U.U.U.U.U.U.U.U.U.U.U.U.U.U.U.          ",
"            U.U.U.U.U.U.U.U.U.U.U.U.U.U.U.U.U.U.U.U.U.U.U.U.U.U.U.U.U.U.U.U.U.U.U.U.U.U.U.U.U.U.U.U.U.U.U.U.U.U.U.U.            ",
"              U.U.U.U.U.U.U.U.U.U.U.U.U.U.U.U.U.U.U.U.U.U.U.U.U.U.U.U.U.U.U.U.U.U.U.U.U.U.U.U.U.U.U.U.U.U.U.U.U.U.              ",
"              U.U.U.U.U.U.U.U.U.U.U.U.U.U.U.U.U.U.U.U.U.U.U.U.U.U.U.U.U.U.U.U.U.U.U.U.U.U.U.U.U.U.U.U.U.U.U.U.U.U.              ",
"                U.U.U.U.U.U.U.U.U.U.U.U.U.U.U.U.U.U.U.U.U.U.U.U.U.U.U.U.U.U.U.U.U.U.U.U.U.U.U.U.U.U.U.U.U.U.U.U.                ",
"                  U.U.U.U.U.U.U.U.U.U.U.U.U.U.U.U.U.U.U.U.U.U.U.U.U.U.U.U.U.U.U.U.U.U.U.U.U.U.U.U.U.U.U.U.U.U.                  ",
"                    U.U.U.U.U.U.U.U.U.U.U.U.U.U.U.U.U.U.U.U.U.U.U.U.U.U.U.U.U.U.U.U.U.U.U.U.U.U.U.U.U.U.U.U.                    ",
"                      U.U.U.U.U.U.U.U.U.U.U.U.U.U.U.U.U.U.U.U.U.U.U.U.U.U.U.U.U.U.U.U.U.U.U.U.U.U.U.U.U.U.                      ",
"                          U.U.U.U.U.U.U.U.U.U.U.U.U.U.U.U.U.U.U.U.U.U.U.U.U.U.U.U.U.U.U.U.U.U.U.U.U.U.                          ",
"                            U.U.U.U.U.U.U.U.U.U.U.U.U.U.U.U.U.U.U.U.U.U.U.U.U.U.U.U.U.U.U.U.U.U.U.U.                            ",
"                                U.U.U.U.U.U.U.U.U.U.U.U.U.U.U.U.U.U.U.U.U.U.U.U.U.U.U.U.U.U.U.U.                                ",
"                                  U.U.U.U.U.U.U.U.U.U.U.U.U.U.U.U.U.U.U.U.U.U.U.U.U.U.U.U.U.U.                                  ",
"                                        U.U.U.U.U.U.U.U.U.U.U.U.U.U.U.U.U.U.U.U.U.U.U.U.                                        ",
"                                            U.U.U.U.U.U.U.U.U.U.U.U.U.U.U.U.U.U.U.U.                                            ",
"                                                    U.U.U.U.U.U.U.U.U.U.U.U.                                                    "
};
