/* XPM */
static char *result[] = {
/* columns rows colors chars-per-pixel */
"16 16 45 1 ",
"  c black",
". c #010101",
"X c #040404",
"o c gray2",
"O c #0C0C0C",
"+ c gray5",
"@ c #0E0E0E",
"# c #131313",
"$ c #161616",
"% c gray9",
"& c #191919",
"* c gray14",
"= c #272727",
"- c #282828",
"; c gray16",
": c #2A2A2A",
"> c #2F2F2F",
", c gray19",
"< c #313131",
"1 c #323232",
"2 c gray20",
"3 c #343434",
"4 c #353535",
"5 c #373737",
"6 c gray22",
"7 c #393939",
"8 c #3A3A3A",
"9 c gray23",
"0 c gray25",
"q c #414141",
"w c gray26",
"e c #434343",
"r c #4B4B4B",
"t c gray34",
"y c #6A6A6A",
"u c #6D6D6D",
"i c gray43",
"p c #747474",
"a c #767676",
"s c gray51",
"d c gray53",
"f c #8B8B8B",
"g c #929292",
"h c #D5D5D5",
"j c None",
/* pixels */
"jjjjj      jjjjj",
"jjj          jjj",
"jj .-wweeew=  jj",
"j   8siiiis6   j",
"j   o<    2X   j",
"     ,#  $1     ",
"     +4;:7+     ",
"      OyuO      ",
"      @reO      ",
"     @9=*3O     ",
"     4&ap%>     ",
"j   o5thht3X   j",
"j   7dfggfd8   j",
"jj  =wq00qw-. jj",
"jjj          jjj",
"jjjjj      jjjjj"
};
