/* XPM */
static char *result[] = {
/* columns rows colors chars-per-pixel */
"64 64 164 2 ",
"   c black",
".  c #010101",
"X  c #020202",
"o  c #040404",
"O  c gray2",
"+  c #060606",
"@  c #070707",
"#  c gray3",
"$  c #090909",
"%  c gray4",
"&  c #0B0B0B",
"*  c #0C0C0C",
"=  c gray5",
"-  c #0E0E0E",
";  c gray6",
":  c #101010",
">  c #111111",
",  c gray7",
"<  c #131313",
"1  c gray8",
"2  c #151515",
"3  c #161616",
"4  c #191919",
"5  c gray10",
"6  c #1B1B1B",
"7  c #1D1D1D",
"8  c #1E1E1E",
"9  c gray12",
"0  c #202020",
"q  c gray13",
"w  c #222222",
"e  c gray14",
"r  c #252525",
"t  c gray15",
"y  c #272727",
"u  c gray17",
"i  c #2C2C2C",
"p  c #2D2D2D",
"a  c gray18",
"s  c #2F2F2F",
"d  c gray19",
"f  c #313131",
"g  c #323232",
"h  c gray20",
"j  c #343434",
"k  c #353535",
"l  c gray21",
"z  c #373737",
"x  c gray22",
"c  c #3A3A3A",
"v  c #3C3C3C",
"b  c gray24",
"n  c #3E3E3E",
"m  c #3F3F3F",
"M  c gray25",
"N  c #414141",
"B  c #434343",
"V  c #444444",
"C  c gray27",
"Z  c #464646",
"A  c gray28",
"S  c #484848",
"D  c gray29",
"F  c #4B4B4B",
"G  c #4C4C4C",
"H  c gray30",
"J  c gray31",
"K  c #505050",
"L  c gray32",
"P  c gray33",
"I  c #555555",
"U  c #565656",
"Y  c gray34",
"T  c #585858",
"R  c gray35",
"E  c #5A5A5A",
"W  c #5B5B5B",
"Q  c #5D5D5D",
"!  c gray37",
"~  c #606060",
"^  c gray38",
"/  c #626262",
"(  c #646464",
")  c #656565",
"_  c #676767",
"`  c #686868",
"'  c DimGray",
"]  c #6A6A6A",
"[  c #6D6D6D",
"{  c gray43",
"}  c gray45",
"|  c #747474",
" . c #777777",
".. c gray47",
"X. c #797979",
"o. c gray49",
"O. c gray50",
"+. c #818181",
"@. c gray51",
"#. c #838383",
"$. c #848484",
"%. c gray52",
"&. c #888888",
"*. c gray54",
"=. c #8B8B8B",
"-. c #8D8D8D",
";. c #979797",
":. c #9A9A9A",
">. c #A2A2A2",
",. c #A5A5A5",
"<. c gray65",
"1. c gray66",
"2. c #A9A9A9",
"3. c #AAAAAA",
"4. c gray67",
"5. c #ACACAC",
"6. c gray68",
"7. c #AEAEAE",
"8. c gray69",
"9. c #B1B1B1",
"0. c #B2B2B2",
"q. c gray70",
"w. c #B4B4B4",
"e. c gray71",
"r. c #B6B6B6",
"t. c #B7B7B7",
"y. c #B9B9B9",
"u. c gray73",
"i. c #BBBBBB",
"p. c #BCBCBC",
"a. c gray74",
"s. c gray",
"d. c gray75",
"f. c #C1C1C1",
"g. c gray76",
"h. c gray77",
"j. c #C5C5C5",
"k. c #C6C6C6",
"l. c gray78",
"z. c #C8C8C8",
"x. c gray79",
"c. c #CACACA",
"v. c #CBCBCB",
"b. c gray80",
"n. c #CDCDCD",
"m. c gray81",
"M. c #D0D0D0",
"N. c LightGray",
"B. c gray83",
"V. c #D8D8D8",
"C. c gray86",
"Z. c gainsboro",
"A. c #DDDDDD",
"S. c gray87",
"D. c gray88",
"F. c #E2E2E2",
"G. c gray89",
"H. c #EEEEEE",
"J. c gray94",
"K. c #F1F1F1",
"L. c #F6F6F6",
"P. c gray98",
"I. c white",
"U. c None",
/* pixels */
"U.U.U.U.U.U.U.U.U.U.U.U.U.U.U.U.U.U.U.U.U.U.U.U.U.U.                        U.U.U.U.U.U.U.U.U.U.U.U.U.U.U.U.U.U.U.U.U.U.U.U.U.U.",
"U.U.U.U.U.U.U.U.U.U.U.U.U.U.U.U.U.U.U.U.U.U.                                        U.U.U.U.U.U.U.U.U.U.U.U.U.U.U.U.U.U.U.U.U.U.",
"U.U.U.U.U.U.U.U.U.U.U.U.U.U.U.U.U.U.U.U.                                                U.U.U.U.U.U.U.U.U.U.U.U.U.U.U.U.U.U.U.U.",
"U.U.U.U.U.U.U.U.U.U.U.U.U.U.U.U.U.                                                            U.U.U.U.U.U.U.U.U.U.U.U.U.U.U.U.U.",
"U.U.U.U.U.U.U.U.U.U.U.U.U.U.U.U.                                                                U.U.U.U.U.U.U.U.U.U.U.U.U.U.U.U.",
"U.U.U.U.U.U.U.U.U.U.U.U.U.U.                                                                        U.U.U.U.U.U.U.U.U.U.U.U.U.U.",
"U.U.U.U.U.U.U.U.U.U.U.U.U.                                                                            U.U.U.U.U.U.U.U.U.U.U.U.U.",
"U.U.U.U.U.U.U.U.U.U.U.                                                                                    U.U.U.U.U.U.U.U.U.U.U.",
"U.U.U.U.U.U.U.U.U.U.                                                                                        U.U.U.U.U.U.U.U.U.U.",
"U.U.U.U.U.U.U.U.U.                                                                                            U.U.U.U.U.U.U.U.U.",
"U.U.U.U.U.U.U.U.                . # $ $ $ $ $ $ $ $ $ % % % % $ $ % % % % % % % % % $ $ $ % @ .                 U.U.U.U.U.U.U.U.",
"U.U.U.U.U.U.U.                  ; >.h.d.d.d.d.d.d.d.d.d.f.f.f.d.d.f.f.f.f.f.f.f.f.f.d.d.d.j.:.&                   U.U.U.U.U.U.U.",
"U.U.U.U.U.U.U.                  * X.d.I.I.I.I.I.I.I.I.I.I.I.I.I.I.I.I.I.I.I.I.I.I.I.I.I.I.r.} #                   U.U.U.U.U.U.U.",
"U.U.U.U.U.U.                        S x.x.l.x.c.c.c.c.c.c.c.c.v.c.c.c.c.c.c.c.c.c.x.l.x.h.z                         U.U.U.U.U.U.",
"U.U.U.U.U.                          O = t ) 2 - - - - - - - - ; ; - - - - - - - - 6 ' 0 = o                           U.U.U.U.U.",
"U.U.U.U.U.                              d e.-                                     5 p.w                               U.U.U.U.U.",
"U.U.U.U.                                a e.:                                     q s.8                                 U.U.U.U.",
"U.U.U.                                  8 e.6                                     f p.<                                   U.U.U.",
"U.U.U.                                  = q.z                                     K 4.O                                   U.U.U.",
"U.U.U.                                    ;.]                                     O.%.                                    U.U.U.",
"U.U.                                      R <.O                                 - e.A                                       U.U.",
"U.U.                                      4 y.l                                 F i.>                                       U.U.",
"U.                                          { ;.o                             % 3._                                           U.",
"U.                                          , 5.J                             ` 7.-                                           U.",
"U.                                            b r.p                         Z h.x                                             U.",
"U.                                              ~ 0.t                     n k.Y                                               U.",
"                                                X ` w.j                 A h.!                                                   ",
"                                                    T p.C c *.=.=.&.j U f.J                                                     ",
"                                                      D i./ 6.I.I.1.| s.b                                                       ",
"                                                        m t.{ S.V...s.g                                                         ",
"                                                          C i.-.=.h.D                                                           ",
"                                                            h H p.)                                                             ",
"                                                            a d.o.3                                                             ",
"                                                          z l.#.u >.p                                                           ",
"                                                        z v...D k ^ 8.e                                                         ",
"                                                      N z.|   J v   [ e.d                                                       ",
"                                                    P x.^ .   K b   X ^ u.V                                                     ",
"                                                . ) x.H       K b       S a.L                                                   ",
"U.                                              ^ v.N         J v         c y.F                                               U.",
"U.                                            M m.S           ' U           m y.a                                             U.",
"U.                                          3 p.[           = s.4.+           ( <.*                                           U.",
"U.                                           .6.%           ) P.L.W           $ ,.Q                                           U.",
"U.U.                                      4 g.C           v D.I.I.A.k           A 9.-                                       U.U.",
"U.U.                                      E q.$         g N.I.I.I.I.b.s         = w.B                                       U.U.",
"U.U.U.                                    :.O.        h n.I.I.I.I.I.I.b.d         +.@.                                    U.U.U.",
"U.U.U.                                  * u.A       m B.I.I.I.I.I.I.I.I.M.b       G 2.O                                   U.U.U.",
"U.U.U.                                  9 f.r   X Y G.I.I.I.I.I.I.I.I.I.I.F.I .   i y.1                                   U.U.U.",
"U.U.U.U.                                a s.2   E C.J.H.H.H.H.H.H.H.H.H.H.K.Z.W   8 f.e                                 U.U.U.U.",
"U.U.U.U.U.                              l f.> . w a s d d d d s d d d d s d g y . 4 g.y                               U.U.U.U.U.",
"U.U.U.U.U.                          o * d $.4 - * * & & & & & * * & & & & & & * = 7 +.t = O                           U.U.U.U.U.",
"U.U.U.U.U.U.                        z h.c.c.c.c.c.c.c.c.c.c.x.c.v.c.c.c.c.c.c.c.c.x.x.c.x.S                         U.U.U.U.U.U.",
"U.U.U.U.U.U.U.                  # } r.I.I.I.I.I.I.I.I.I.I.I.I.I.I.I.I.I.I.I.I.I.I.I.I.I.I.d.X.*                   U.U.U.U.U.U.U.",
"U.U.U.U.U.U.U.                  & :.j.d.d.d.f.f.f.f.f.f.f.f.f.d.d.f.f.f.d.d.d.d.d.d.d.d.d.h.>.;                   U.U.U.U.U.U.U.",
"U.U.U.U.U.U.U.U.                . @ % $ $ $ % % % % % % % % % $ $ % % % % $ $ $ $ $ $ $ $ % # .                 U.U.U.U.U.U.U.U.",
"U.U.U.U.U.U.U.U.U.                                                                                            U.U.U.U.U.U.U.U.U.",
"U.U.U.U.U.U.U.U.U.U.                                                                                        U.U.U.U.U.U.U.U.U.U.",
"U.U.U.U.U.U.U.U.U.U.U.                                                                                    U.U.U.U.U.U.U.U.U.U.U.",
"U.U.U.U.U.U.U.U.U.U.U.U.U.                                                                            U.U.U.U.U.U.U.U.U.U.U.U.U.",
"U.U.U.U.U.U.U.U.U.U.U.U.U.U.                                                                        U.U.U.U.U.U.U.U.U.U.U.U.U.U.",
"U.U.U.U.U.U.U.U.U.U.U.U.U.U.U.U.                                                                U.U.U.U.U.U.U.U.U.U.U.U.U.U.U.U.",
"U.U.U.U.U.U.U.U.U.U.U.U.U.U.U.U.U.                                                            U.U.U.U.U.U.U.U.U.U.U.U.U.U.U.U.U.",
"U.U.U.U.U.U.U.U.U.U.U.U.U.U.U.U.U.U.U.U.                                                U.U.U.U.U.U.U.U.U.U.U.U.U.U.U.U.U.U.U.U.",
"U.U.U.U.U.U.U.U.U.U.U.U.U.U.U.U.U.U.U.U.U.U.                                        U.U.U.U.U.U.U.U.U.U.U.U.U.U.U.U.U.U.U.U.U.U.",
"U.U.U.U.U.U.U.U.U.U.U.U.U.U.U.U.U.U.U.U.U.U.U.U.U.U.                        U.U.U.U.U.U.U.U.U.U.U.U.U.U.U.U.U.U.U.U.U.U.U.U.U.U."
};
