/* XPM */
static char *result[] = {
/* columns rows colors chars-per-pixel */
"32 32 211 2 ",
"   c #34363E",
".  c #463E3C",
"X  c #333347",
"o  c #564444",
"O  c #414158",
"+  c #484A58",
"@  c #494B5C",
"#  c #53535E",
"$  c #565D59",
"%  c #695454",
"&  c #655856",
"*  c #665C5C",
"=  c #6B5B59",
"-  c #735C5C",
";  c #5C6059",
":  c #484860",
">  c #4D4D69",
",  c #5F5F60",
"<  c #5A5E65",
"1  c #595A6D",
"2  c #595B75",
"3  c #5D5E75",
"4  c #5D5F75",
"5  c #606060",
"6  c #6B6461",
"7  c #656D6D",
"8  c #686F68",
"9  c #6D6E6D",
"0  c #796867",
"q  c #68706E",
"w  c #6E796F",
"e  c #72736B",
"r  c #72746C",
"t  c #707A6F",
"y  c #686B78",
"u  c #6A6B7B",
"i  c #6E7774",
"p  c #6F7874",
"a  c #6E707F",
"s  c #707970",
"d  c #707973",
"f  c #757B72",
"g  c #767B72",
"h  c #797C73",
"j  c #727B78",
"k  c #806565",
"l  c #856F6F",
"z  c #877371",
"x  c #817572",
"c  c #857675",
"v  c #8B7271",
"b  c #897B79",
"n  c #9C7D7D",
"m  c #7C8077",
"M  c #77817A",
"N  c #7C8379",
"B  c #616182",
"V  c #65658B",
"C  c #66658B",
"Z  c #67668C",
"A  c #6B6B95",
"S  c #7B7C90",
"D  c #7B7D91",
"F  c #7D7E92",
"G  c #7D7F93",
"H  c #7473A0",
"J  c #7C7BAB",
"K  c #7D7DAC",
"L  c #7F7FAE",
"P  c #858586",
"I  c #868686",
"U  c #9D8988",
"Y  c #9D8A89",
"T  c #9F8B8A",
"R  c #A88485",
"E  c #A88586",
"W  c #AA8687",
"Q  c #A08C8B",
"!  c #B68E8F",
"~  c #B79999",
"^  c #8182A1",
"/  c #8787B6",
"(  c #8888BB",
")  c #8B8BBF",
"_  c #9597B0",
"`  c #9697B1",
"'  c #9799B3",
"]  c #9899B6",
"[  c #9D9FBB",
"{  c #9E9FBA",
"}  c #9FA1BC",
"|  c #A0A0A0",
" . c #A7B8A7",
".. c #A9B9A9",
"X. c #ACBDAC",
"o. c #ACBEAC",
"O. c #ACBEAD",
"+. c #ADBEAD",
"@. c #B0B1B1",
"#. c #B2B1B1",
"$. c gray75",
"%. c #C29899",
"&. c #C0A7A6",
"*. c #C1A8A7",
"=. c #C3A9A9",
"-. c #C7ACAB",
";. c #D0A3A4",
":. c #D1A5A5",
">. c #D3A6A7",
",. c #DAADAE",
"<. c #CBB0AF",
"1. c #CBB0B0",
"2. c #CDB2B2",
"3. c #D5B7B6",
"4. c #DCBFBE",
"5. c #E4B3B4",
"6. c #E8B7B8",
"7. c #AEC0AE",
"8. c #B3C5B3",
"9. c #B4C7B5",
"0. c #B5C7B5",
"q. c #B6C8B6",
"w. c #B6C9B6",
"e. c #B9CCB9",
"r. c #BBCEBB",
"t. c #BED1BE",
"y. c #9292C8",
"u. c #9595CA",
"i. c #9898D1",
"p. c #9999D2",
"a. c #9A9AD4",
"s. c #9B9CD5",
"d. c #9E9ED4",
"f. c #9E9FD5",
"g. c #9C9CD6",
"h. c #9D9DD8",
"j. c #9E9ED9",
"k. c #9FA0D6",
"l. c #A0A1C1",
"z. c #ABADCA",
"x. c #ADAFCD",
"c. c #AEB0CE",
"v. c #A5A5D6",
"b. c #A7A8D4",
"n. c #B0B2D1",
"m. c #B5B7D5",
"M. c #B9BBE1",
"N. c #BBBCE0",
"B. c #BBBDE0",
"V. c #BBBDE1",
"C. c #BCBDE1",
"Z. c #BDBFE0",
"A. c #BCBEE2",
"S. c #BDBFE3",
"D. c #F3BFC0",
"F. c #BFC1E1",
"G. c #BFC1E2",
"H. c #DFC2C1",
"J. c #C1D5C1",
"K. c #E0C3C2",
"L. c #E3C6C5",
"P. c #E8CAC9",
"I. c #F3C1C2",
"U. c #F4CACA",
"Y. c #FFC8C9",
"T. c #FFC9CA",
"R. c #FECBCB",
"E. c #FFCBCC",
"W. c #FBCCCD",
"Q. c #FFCCCD",
"!. c #FFCDCE",
"~. c #FFCECF",
"^. c #F4D4D3",
"/. c #F5D5D4",
"(. c #F7D5D4",
"). c #F6D6D5",
"_. c #F7D7D6",
"`. c #FFD0D1",
"'. c #F8D5D4",
"]. c #F8D5D5",
"[. c #FAD5D5",
"{. c #F9D6D6",
"}. c #FAD7D7",
"|. c #F8D8D7",
" X c #F9D8D7",
".X c #F9D9D8",
"XX c #FBDAD9",
"oX c #FDDCDB",
"OX c #D3E8D3",
"+X c #DEF4DE",
"@X c #C0C2E3",
"#X c #C1C3E4",
"$X c #C1C3E5",
"%X c #C3C5E7",
"&X c #C4C6E8",
"*X c #DFF6E0",
"=X c #E0F6E0",
"-X c #E0F7E0",
";X c #E2F9E2",
":X c #E3F9E2",
">X c #E3FAE4",
",X c #E4FBE4",
"<X c #E5FCE5",
"1X c #E6FDE6",
"2X c #E7FEE7",
"3X c #E8FFE8",
"4X c #E9FFE9",
"5X c #EAFFEA",
"6X c #EBFFEB",
"7X c #ECFFEC",
"8X c None",
/* pixels */
"8X8X8X8X8X8X8X8X8X8X8X8X3X3X3X3X3X3X3X3X8X8X8X8X8X8X8X8X8X8X8X8X",
"8X8X8X8X8X8X8X8X8X3X3X3X3X3X3X3X3X3X3X3X3X3X3X8X8X8X8X8X8X8X8X8X",
"8X8X8X8X8X8X8X3X3X3X3X3X3X3X3X3X3X3X3X3X3X3X3X3X3X8X8X8X8X8X8X8X",
"8X8X8X8X8X8X3X3X3X3X3X3X3X3X3X3X3X3X3X3X3X3X3X3X3X3X8X8X8X8X8X8X",
"8X8X8X8X8X3X3X3X3X3X3X3X3X3X3X3X3X3X3X3X3X3X3X3X3X3X3X8X8X8X8X8X",
"8X8X8X8X3X3X3X3X3X3X3X3X3X3X3X3X3X3X3X3X3X3X3X3X3X3X3X3X8X8X8X8X",
"8X8X8X3X3X3X3X3X3X3X3X3X3X3X3X3X3X3X3X3X3X3X3X3X3X3X3X3X3X8X8X8X",
"8X8X3X3X3X3X3X3X3X3X3X3X3X3X3X3X3X3X3X3X3X3X3X3X3X3X3X3X3X3X8X8X",
"8X8X3X3X3X3X3X3X3X3X3X3X3X3X6X=X=X6X3X3X3X3X3X3X3X3X3X3X3X3X8X8X",
"8X3X3X3X3X3X3X3X3X3X3X3X6X;XX.8 8 X.;X6X3X3X3X3X3X3X3X3X3X3X3X8X",
"8X3X3X3X3X3X2X1X5X3X6X<X9.s 9 | | 9 s 0.<X6X3X5X1X2X3X3X3X3X3X8X",
"8X3X3X3X3X4XOXt 8.,Xt.m . 5 @.$.$.#.,   j t.,X8.w OX4X3X3X3X3X8X",
"3X3X3X3X3X7XX.0 z ; & %.6.n * I P # B ) H + $ 4 1 o.7X3X3X3X3X3X",
"3X3X3X3X4X+Xf -.W.! o % :.E.5.- : ( a.K O X A v.] d +X4X3X3X3X3X",
"3X3X3X3X6XO.c ).}.U.l ~ k >.`.W Z j.L > ^ 3 b.S.G.u +.6X3X3X3X3X",
"3X3X3X3X7X .Q K.<./.P.[.I.D.!.E C g.y.u.M.m.F.{ c.G  .7X3X3X3X3X",
"3X3X3X3X7X..T H.=.4.&.].E.T.Q.E C s.p.f.C._ z.' x.F ..7X3X3X3X3X",
"3X3X3X3X7X..Y XX.XL.2.'.R.T.Q.E C g.p.d.V.} n.$X%XD ..7X3X3X3X3X",
"3X3X3X3X7X .U oX)._.|.(.R.T.Q.E C g.p.d.N.#X@XG.&XS  .7X3X3X3X3X",
"3X3X3X3X6Xe.6 *.^. X).(.R.T.~.R V h.p.d.B.G.#XZ.` < e.6X3X3X3X3X",
"8X3X3X3X3X2XJ.N x 1.).{.Q.Y.;.= @ J i.k.A.G.[ y M J.2X3X3X3X3X8X",
"8X3X3X3X3X3X5X1Xq.g b 3.,.v h r.r.i 2 / l.a p w.1X5X3X3X3X3X3X8X",
"8X3X3X3X3X3X3X3X6X;XX.r e 7.>X6X6X,X7.7 q X.:X6X3X3X3X3X3X3X3X8X",
"8X8X3X3X3X3X3X3X3X3X6X*X*X6X3X3X3X3X6X-X=X6X3X3X3X3X3X3X3X3X8X8X",
"8X8X3X3X3X3X3X3X3X3X3X3X3X3X3X3X3X3X3X3X3X3X3X3X3X3X3X3X3X3X8X8X",
"8X8X8X3X3X3X3X3X3X3X3X3X3X3X3X3X3X3X3X3X3X3X3X3X3X3X3X3X3X8X8X8X",
"8X8X8X8X3X3X3X3X3X3X3X3X3X3X3X3X3X3X3X3X3X3X3X3X3X3X3X3X8X8X8X8X",
"8X8X8X8X8X3X3X3X3X3X3X3X3X3X3X3X3X3X3X3X3X3X3X3X3X3X3X8X8X8X8X8X",
"8X8X8X8X8X8X3X3X3X3X3X3X3X3X3X3X3X3X3X3X3X3X3X3X3X3X8X8X8X8X8X8X",
"8X8X8X8X8X8X8X3X3X3X3X3X3X3X3X3X3X3X3X3X3X3X3X3X3X8X8X8X8X8X8X8X",
"8X8X8X8X8X8X8X8X8X3X3X3X3X3X3X3X3X3X3X3X3X3X3X8X8X8X8X8X8X8X8X8X",
"8X8X8X8X8X8X8X8X8X8X8X8X3X3X3X3X3X3X3X3X8X8X8X8X8X8X8X8X8X8X8X8X"
};
